<?xml version="1.0" standalone="no"?><!DOCTYPE svg PUBLIC "-//W3C//DTD SVG 1.1//EN" "http://www.w3.org/Graphics/SVG/1.1/DTD/svg11.dtd"><svg t="1629111398920" class="icon" viewBox="0 0 1024 1024" version="1.1" xmlns="http://www.w3.org/2000/svg" p-id="2405" xmlns:xlink="http://www.w3.org/1999/xlink" width="200" height="200"><defs><style type="text/css"></style></defs><path d="M513.606112 185.51393c69.969252 0 139.938504-0.031804 209.875952 0.031804 78.492779 0.095413 130.333634 51.618225 130.397242 129.888375 0.127217 137.807622 0.127217 275.615244 0 413.422865-0.063608 76.807156-51.840855 128.934249-128.361773 129.061466-142.578253 0.222629-285.156505 0.222629-427.734758 0-76.107463-0.127217-127.693885-51.904463-127.725689-127.630277-0.063608-138.348293-0.095413-276.664782 0-415.013075 0.063608-79.001646 51.109358-129.697549 130.492655-129.761158 71.018791-0.063608 142.037581 0 213.056371 0z" fill="#081721" p-id="2406"></path><path d="M189.235022 744.472839v-203.13346c12.371836 17.492313 23.089853 32.726527 35.39808 46.815791 38.41948 43.953412 86.889089 68.919713 143.500575 80.146597 42.999286 8.523527 80.019381-5.025064 114.844986-28.464764 27.351617-18.414635 31.327142-19.20974 57.756437 0.127217 27.415225 20.036649 57.661024 31.740597 91.150852 30.818275 28.43296-0.763301 56.166227-8.205485 82.404696-20.227474 47.006616-21.531447 83.804081-54.480604 111.537348-97.893344 1.971861-3.053204 4.357176-5.851974 8.968786-11.990186v203.769544c-14.470913 47.292853-74.04019 78.397366-120.219896 78.111128-134.595397-0.795105-269.222598-0.572476-403.817995-0.063608-29.959561 0.127217-56.42066-8.777961-80.496444-25.316148-19.018915-13.00792-34.63478-29.450694-41.027425-52.699568z" fill="#1D2E3A" p-id="2407"></path><path d="M522.702115 345.966146c13.803025-6.869708 14.375501-12.944312 1.908252-22.453769-2.735162-2.067273-4.802435-4.325372-3.816504-7.919247 1.144951-4.229959 5.21589-4.929652 8.555331-6.265429 4.707022-1.908252 14.152871 2.671553 10.622605-9.700282-2.19449-7.728422-3.911917-11.672143-12.467249-7.728422-3.212225 1.494798-6.424449 0.190825-7.092338-3.848309-0.667888-4.134547 0.477063-8.269093 5.502128-7.283163 9.382241 1.844644 8.523527-5.438519 10.304562-10.463584 2.607945-7.346771-3.689288-7.887443-7.79203-8.968786-7.283163-1.940057-8.300898-6.869708-8.555331-13.230549-0.286238-7.028729 0.922322-12.721682 8.555331-14.884368 4.420785-1.272168 8.873373-2.989595 6.297233-8.459919-1.81284-3.880113-0.031804-12.149206-9.064199-9.700282-3.180421 0.858714-5.056869-0.540671-5.311302-3.848309-0.254434-3.530267 0.858714-6.456254 4.770631-6.933317 3.657484-0.445259 7.41038-0.413455 11.099667-0.413455 65.739292-0.031804 131.446781-0.031804 197.186074 0 4.229959 0 8.587135-0.190825 12.626269 0.731497 9.255024 2.099078 17.142467 4.99326 7.346772 16.347362-4.229959 4.929652-9.159611 10.877038-0.890518 17.269683 2.448924 1.908252 0.699693 4.99326-0.890518 7.124142-2.862378 3.880113-5.59754 1.367581-7.951051-0.667888-6.965121-5.947386-11.131472-4.38898-15.965711 3.466658-5.851974 9.541262 2.703357 9.414045 6.742491 11.894773 6.074603 3.752896 13.039724 7.442184 10.749822 15.584061-2.448924 8.682548-2.607945 19.018915-13.453179 23.630524-15.838494 6.742492-15.933907 8.777961-2.894183 20.132062 3.180421 2.766966 1.431189 8.173681-4.070938 7.792031-12.499053-0.858714-9.859304 10.272758-14.343697 15.552256-6.010995 7.028729-6.901513 12.658074 2.639749 19.146132 5.629344 3.848309 0.699693 11.290493-5.374911 9.509457-10.845234-3.180421-14.566326 5.979191-13.262353 10.113737 3.40305 10.718017-4.00733 12.212815-9.668479 15.42504-30.468429 17.269684-58.138087 38.41948-83.867689 61.954592-17.905768 16.41097-33.394416 35.302668-47.897133 54.798646-31.295338 42.076964-50.409665 43.158307-81.577787 2.035469-36.797466-48.533217-79.892164-89.656055-133.959313-118.470665-4.293568-2.289903-8.141877-2.862378-2.735162-9.732087 3.7847-4.802435 3.880113-14.59813-7.951051-15.234214-7.982856-0.445259-12.212815-3.275833-6.519862-12.085598 4.770631-7.378576 1.367581-12.530857-6.010995-16.347362-14.59813-7.601205-16.633599-20.768146-5.152281-33.044569 2.989595-3.212225 4.643414-6.010995 1.272168-9.414045-2.925987-2.925987-3.657484-10.113737-10.527192-6.424449-5.088673 2.735162-8.491723 3.180421-9.986521-3.975526-1.176756-5.661149-4.420785-10.304563 3.562071-14.470914 6.742492-3.498463 4.293568-14.852564-3.053203-17.555921-13.198745-4.866043-14.534522-10.240954-4.707023-18.891698 8.459919-7.442184 7.41038-16.02932-3.848309-17.969376-9.159611-1.59021-8.332702-7.664813-8.300897-12.244619 0.031804-6.170016 6.329037-5.947386 11.067863-5.947386 69.42858-0.031804 138.857161-0.063608 208.317545 0 4.039134 0 9.127807-1.081343 10.558997 4.484393 1.367581 5.374911 0.98593 10.622605-4.770631 13.77122-11.990185 6.519862-9.827499 13.421375 0 19.591391 7.283163 4.548001 6.583471 6.647079-0.954126 9.954716-11.226884 4.961456-14.025655 10.718017-1.303973 18.573656 12.149206 7.505792 11.067863 22.453769-2.162686 27.097183-8.364506 2.925987-7.41038 7.633009-5.59754 13.00792 1.622014 4.834239 4.961456 8.777961 1.367581 14.407305-3.498463 5.470323-0.349846 8.078268 5.247694 10.20915 10.908842 4.166351 12.085598 9.00059 0.763301 15.552256-7.696618 4.452589-7.346771 10.972451 0.858713 15.615865 10.145542 5.724757 9.127807 12.785291 3.0214 20.831755-6.424449 8.491723-0.222629 24.902693 10.081933 26.524707 2.003665 0.318042 4.452589 0.254434 6.233624-0.60428 6.360841-2.989595 12.276423-27.256204 7.792031-33.267199-4.039134-5.406715-6.901513-11.385906 1.653818-12.944311 8.269093-1.494798 10.558996-4.579806 10.304563-12.276423-0.349846-10.495388-10.81343-0.636084-13.262354-8.459919z" fill="#1D2E3A" p-id="2408"></path><path d="M377.261484 621.931236c-57.820045-3.148616-106.957543-24.616455-143.723204-70.700749-22.167531-27.796875-21.976706-63.035935-0.922322-89.083579 21.881293-27.065379 55.43473-33.712458 88.542908-17.842159 35.652514 17.078858 66.725223 40.518558 95.253595 67.61574 7.283163 6.933317 14.21648 14.280088 21.849489 20.768147 15.584061 13.262354 22.00851 29.832345 17.047054 49.582756-5.088673 20.163866-20.640929 30.436625-39.62804 34.602975-12.371836 2.671553-24.743672 8.682548-38.41948 5.056869zM643.017424 622.917166c-16.315557-0.731497-34.571171-3.498463-51.363792-12.085598-26.588316-13.6122-34.443954-48.565022-14.057458-70.001056 36.924682-38.801131 76.775352-74.421841 126.103674-97.289064 51.872659-24.075783 106.25785 12.594465 102.504954 68.951517-0.954126 14.184676-6.8061 26.429295-15.20241 37.656179-31.61338 42.140572-92.613846 72.609001-147.984968 72.768022z" fill="#FFFFFF" p-id="2409"></path><path d="M189.235022 744.472839c21.944902 36.288598 51.554617 62.209026 94.23586 71.336833 6.901513 1.462993 13.580396 1.781036 20.386496 1.781035 135.549523 0.063608 271.130851-0.095413 406.680374 0.127217 49.900798 0.063608 88.574712-19.877628 115.640091-62.0182 2.544336-3.943721 5.724757-7.505792 8.618939-11.226885-3.212225 50.187036-49.423735 95.221791-99.197316 95.349008-148.811877 0.318042-297.623754 0.286238-446.435631 0.031804-52.349722-0.127217-99.006491-45.161972-99.928813-95.380812z" fill="#15222B" p-id="2410"></path><path d="M189.203218 425.890114c0-43.41274-1.653819-86.920893 0.508867-130.206417 1.781036-35.588906 20.863559-62.399851 53.081219-78.810821 3.848309-1.971861 10.145542-6.519862 11.926577 0.031805 1.526602 5.629344 6.297233 12.308227 0.60428 19.082523-3.530267 4.198155-13.580396 3.816505-9.859304 13.484983 2.544336 6.615275 6.901513 6.837904 13.453179 7.283163 3.721092 0.254434 9.922912 8.873373 1.781035 14.375501-5.279498 3.562071-9.509457 6.456254-6.965121 13.739416 2.226294 6.329037 5.692953 6.933317 12.085598 5.724757 7.696618-1.462993 6.392645 6.965121 8.428115 11.131472 2.576141 5.279498 3.7847 11.036059-2.925987 15.170606-3.689288 2.289903-10.495388 3.816505-7.092338 10.050129 2.480728 4.484393 5.59754 11.226884 13.357766 7.505793 4.325372-2.067273 7.092338-1.462993 7.601205 3.721092 0.38165 4.00733 7.124142 7.283163 0.890518 12.117402-8.746156 6.742492-3.0214 13.453179 2.385316 17.301488 2.703357 1.908252 10.877038-1.653819 8.968786 5.661148-1.240364 4.738827-8.428114 2.703357-12.62627 1.653819-26.079448-6.551666-47.6427 2.925987-67.329503 18.669068-11.131472 8.905178-18.859894 20.895363-28.273938 32.313073zM834.796782 430.406311c-14.21648-20.863559-25.761406-39.119173-46.561356-48.215175-7.79203-3.40305-15.933907-9.159611-23.694133-7.855639-20.068454 3.40305-14.979781-15.679473-22.580986-23.121657-0.572476-0.540671 1.081343-5.088673 2.130882-5.279498 14.025655-2.226294 9.255024-11.41771 8.237289-19.941237-0.98593-8.39631 1.176756-15.615865 10.972451-18.351027 6.742492-1.876448 10.527192-6.965121 5.184085-12.944311-6.329037-7.092338-8.491723-11.640339 1.81284-16.856229 2.289903-1.144951 8.078268-7.251359 4.643414-10.368171-11.576731-10.527192-2.035469-17.651334 2.735161-25.761406 2.512532-4.293568 7.633009-8.39631-0.063608-12.848899-3.880113-2.258099-4.166351-6.583471-1.844644-9.700283 3.530267-4.738827 8.141877-1.59021 11.226885 0.731497 25.41156 18.955306 45.734447 42.522223 47.292853 75.216946 2.067273 43.603566 0.508867 87.397956 0.508867 135.295089z" fill="#1D2E3A" p-id="2411"></path></svg>