<?xml version="1.0" standalone="no"?><!DOCTYPE svg PUBLIC "-//W3C//DTD SVG 1.1//EN" "http://www.w3.org/Graphics/SVG/1.1/DTD/svg11.dtd"><svg t="1629110468516" class="icon" viewBox="0 0 1024 1024" version="1.1" xmlns="http://www.w3.org/2000/svg" p-id="1248" xmlns:xlink="http://www.w3.org/1999/xlink" width="200" height="200"><defs><style type="text/css"></style></defs><path d="M113 489.5C113 268.9 291.6 90 512 90s399 178.9 399 399.5S732.4 889 512 889 113 710.1 113 489.5z" fill="#333F50" p-id="1249"></path><path d="M194.2 607.6l0.5 1.8 0.2 1.8-0.1 1.8-0.4 1.7-0.6 1.6-0.9 1.5-1.1 1.4-1.3 1.2-1.5 1-1.7 0.8-1.8 0.5-1.8 0.2-1.8-0.1-1.7-0.4-1.7-0.6-1.5-0.9-1.4-1.1-1.2-1.3-1-1.5-0.8-1.7-1-2.9-1-2.9-0.9-2.9-0.9-2.9-0.9-2.9-0.9-2.9-0.9-2.9-0.8-2.9-0.8-2.9-0.8-2.9-0.8-2.9-0.7-2.9-0.7-2.9-0.7-2.9-0.7-2.9-0.6-2.9-0.6-2.9-0.6-2.9-0.6-2.9-0.5-2.9-0.5-2.9-0.5-2.9-0.5-2.9-0.4-3-0.4-3-0.4-3-0.4-3-0.4-3-0.3-3-0.3-3-0.3-3-0.3-3-0.2-3-0.2-3-0.2-3-0.2-3-0.1-3-0.1-3-0.1-3-0.1-3v-15l0.1-3 0.1-3 0.1-3 0.1-3 0.2-3 0.2-3 0.2-3 0.2-3 0.3-3 0.3-3 0.3-3 0.3-3 0.4-2.9 0.4-2.9 0.4-2.9 0.4-2.9 0.4-2.9 0.5-2.9 0.5-2.9 0.5-2.9 0.5-2.9 0.6-2.9 0.6-2.9 0.6-2.9 0.6-2.9 0.7-2.9 0.7-2.9 0.7-2.9 0.7-2.9 0.7-2.9 0.8-2.9 0.8-2.9 0.8-2.9 0.8-2.9 0.9-2.9 0.9-2.9 0.9-2.8 0.9-2.8 1-2.8 1-2.8 1-2.8 1-2.8 1-2.8 1.1-2.8 1.1-2.8 1.1-2.8 1.1-2.8 1.2-2.8 1.2-2.8 1.2-2.8 1.2-2.8 1.3-2.7 1.3-2.7 2.6-5.4 1.4-2.8 1.4-2.7 1.4-2.7 1.4-2.7 1.4-2.7 1.5-2.6 1.5-2.6 1.5-2.6 1.5-2.6 1.5-2.6 1.6-2.6 1.6-2.6 1.6-2.5 1.6-2.5 1.6-2.5 1.6-2.5 1.7-2.5 1.7-2.5 1.7-2.5 1.7-2.4 1.7-2.4 1.8-2.4 1.8-2.4 1.8-2.4 1.8-2.4 1.8-2.4 1.9-2.3 1.9-2.3 1.9-2.3 1.9-2.3 1.9-2.3 1.9-2.3 2-2.2 2-2.2 2-2.2 2-2.2 2-2.2 2-2.2 2.1-2.1 2.1-2.1 2.1-2.1 2.1-2.1 2.1-2.1 2.1-2.1 2.2-2 2.2-2 2.2-2 2.2-2 2.2-2 2.2-2 2.3-1.9 2.3-1.9 2.3-1.9 2.3-1.9 2.3-1.9 2.3-1.9 2.3-1.8 2.4-1.8 2.4-1.8 2.4-1.8 2.4-1.8 2.4-1.7 2.4-1.7 2.4-1.7 2.5-1.7 2.5-1.7 2.5-1.6 2.5-1.6 2.5-1.6 2.5-1.6 2.5-1.6 2.6-1.5 2.6-1.5 2.6-1.5 2.6-1.5 2.6-1.5 2.6-1.4 2.6-1.4 2.6-1.4 2.7-1.4 2.7-1.4 2.7-1.3 2.7-1.3 2.7-1.3 2.7-1.3 2.7-1.3 2.7-1.2 2.8-1.2 2.8-1.2 2.8-1.2 2.8-1.2 2.8-1.1 2.8-1.1 2.8-1.1 2.8-1.1 2.8-1 2.8-1 2.9-1 5.7-1.9 3.7-0.6 3.5 0.6 3.2 1.6 2.6 2.5 1.7 3.3 0.6 3.6-0.6 3.5-1.6 3.2-2.5 2.5-3.3 1.7-5.4 1.8-2.7 0.9-2.7 1-2.7 1-2.7 1-2.6 1-2.6 1-2.6 1.1-2.6 1.1-2.6 1.1-2.6 1.1-2.6 1.1-2.6 1.2-2.6 1.2-2.5 1.2-2.5 1.2-2.5 1.2-2.5 1.3-2.5 1.3-2.5 1.3-2.5 1.3-2.5 1.3-2.5 1.4-2.4 1.4-2.4 1.4-2.4 1.4-2.4 1.4-2.4 1.5-2.4 1.5-2.4 1.5-2.4 1.5-2.3 1.5-2.3 1.5-2.3 1.6-2.3 1.6-2.3 1.6-2.3 1.6-2.3 1.6-2.3 1.7-2.2 1.7-2.2 1.7-2.2 1.7-2.2 1.7-2.2 1.7-2.2 1.8-2.2 1.8-2.1 1.8-2.1 1.8-2.1 1.8-2.1 1.8-2.1 1.9-2.1 1.9-2.1 1.9-2 1.9-2 1.9-2 1.9-2 2-2 2-2 2-2 2-1.9 2-1.9 2-1.9 2-1.9 2.1-1.9 2.1-1.9 2.1-1.8 2.1-1.8 2.1-1.8 2.1-1.8 2.2-1.8 2.2-1.8 2.2-1.7 2.2-1.7 2.2-1.7 2.2-1.7 2.2-1.7 2.3-1.7 2.3-1.6 2.3-1.6 2.3-1.6 2.3-1.6 2.3-1.6 2.3-1.5 2.4-1.5 2.4-1.5 2.4-1.5 2.4-1.5 2.4-1.5 2.4-1.4 2.4-1.7 2.8-1.4 2.5-1.4 2.5-1.4 2.5-1.3 2.5-1.3 2.5-1.3 2.5-1.3 2.5-1.2 2.5-2.5 5.2-1.2 2.6-1.2 2.6-1.2 2.6-1.1 2.6-1.1 2.6-1.1 2.6-1.1 2.6-1.1 2.6-1 2.6-1 2.6-1 2.6-1 2.6-0.9 2.7-0.9 2.7-0.9 2.7-0.9 2.7-0.9 2.7-0.8 2.7-0.8 2.7-0.8 2.7-0.8 2.7-0.7 2.7-0.7 2.7-0.7 2.7-0.7 2.7-0.7 2.7-0.6 2.7-0.6 2.7-0.6 2.7-0.6 2.7-0.6 2.7-0.5 2.7-0.5 2.7-0.5 2.7-0.5 2.8-0.4 2.8-0.4 2.8-0.4 2.8-0.4 2.8-0.4 2.8-0.3 2.8-0.3 2.8-0.3 2.8-0.3 2.8-0.2 2.8-0.2 2.8-0.2 2.8-0.2 2.8-0.2 2.8-0.1 2.8-0.1 2.8-0.1 2.8-0.1 2.8v14l0.1 2.8 0.1 2.8 0.1 2.8 0.1 2.8 0.2 2.8 0.2 2.8 0.2 2.8 0.2 2.8 0.2 2.8 0.3 2.8 0.3 2.8 0.3 2.8 0.3 2.8 0.4 2.8 0.4 2.8 0.4 2.8 0.4 2.8 0.4 2.8 0.5 2.8 0.5 2.8 0.5 2.8 0.5 2.8 0.6 2.8 0.6 2.8 0.6 2.7 0.6 2.7 0.6 2.7 0.7 2.7 0.7 2.7 0.7 2.7 0.7 2.7 0.8 2.7 0.8 2.7 0.8 2.7 0.8 2.7 0.8 2.7 0.9 2.7 0.9 2.7 0.9 2.7 1.1 1.9zM181 653c0-7.7 6.3-14 14-14s14 6.3 14 14-6.3 14-14 14-14-6.3-14-14zM468.8 178.7c-0.4-0.6-1.1-1-1.9-0.9l-8.3 1-5.5-6.3c-0.5-0.6-1.3-0.8-2-0.6-0.7 0.2-1.3 0.8-1.4 1.5l-1.6 8.2-7.7 3.3c-0.7 0.3-1.1 1-1.2 1.7 0 0.7 0.4 1.5 1 1.8l7.3 4.1 0.8 8.3c0.1 0.7 0.6 1.4 1.3 1.7 0.7 0.3 1.5 0.1 2-0.4l6.2-5.7 8.2 1.8c0.3 0.1 0.6 0.1 0.9 0 0.4-0.1 0.8-0.3 1-0.7 0.5-0.6 0.6-1.4 0.3-2.1l-3.5-7.6 4.3-7.2c0.2-0.5 0.2-1.3-0.2-1.9zM805.8 297.3c-0.2-0.7-0.8-1.2-1.6-1.4l-8.2-1.2-3.7-7.6c-0.3-0.7-1-1.1-1.8-1.1s-1.4 0.4-1.8 1.1l-3.7 7.6-8.2 1.2c-0.7 0.1-1.4 0.6-1.6 1.4-0.2 0.7 0 1.5 0.5 2l6 5.9-1.4 8.3c-0.1 0.8 0.2 1.5 0.8 1.9 0.6 0.4 1.4 0.5 2.1 0.2l7.4-3.9 7.4 3.9c0.3 0.2 0.6 0.2 0.9 0.2 0.4 0 0.8-0.1 1.2-0.4 0.6-0.4 0.9-1.2 0.8-1.9l-1.4-8.3 6-5.9c0.3-0.5 0.5-1.3 0.3-2zM550.8 826.9c-0.2-0.7-0.8-1.2-1.6-1.3l-8.2-1.2-3.7-7.3c-0.3-0.7-1-1.1-1.8-1.1s-1.4 0.4-1.8 1.1l-3.7 7.3-8.2 1.2c-0.7 0.1-1.4 0.6-1.6 1.3-0.2 0.7 0 1.5 0.5 2l6 5.7-1.4 8.1c-0.1 0.7 0.2 1.5 0.8 1.9 0.6 0.4 1.4 0.5 2.1 0.1l7.4-3.8 7.4 3.8c0.3 0.1 0.6 0.2 0.9 0.2 0.4 0 0.8-0.1 1.2-0.4 0.6-0.4 0.9-1.2 0.8-1.9l-1.4-8.1 6-5.7c0.3-0.4 0.5-1.2 0.3-1.9z" fill="#FFFFFF" p-id="1250"></path><path d="M247.4 576.2c0-0.7-0.4-1.4-1.1-1.8l-7.4-3.8-1.1-8.3c-0.1-0.7-0.6-1.4-1.3-1.6-0.7-0.2-1.5-0.1-2 0.5l-6 5.9-8.2-1.6c-0.7-0.1-1.5 0.2-1.9 0.7-0.5 0.6-0.5 1.4-0.2 2.1l3.8 7.5-4 7.3c-0.4 0.7-0.3 1.5 0.1 2.1 0.4 0.6 1.2 0.9 1.9 0.8l8.3-1.3 5.7 6.1c0.2 0.2 0.5 0.4 0.8 0.5 0.4 0.1 0.8 0.1 1.2 0 0.7-0.2 1.2-0.8 1.4-1.6l1.4-8.3 7.6-3.6c0.5-0.1 1-0.8 1-1.6zM800.8 654.3c-0.2-0.7-0.8-1.2-1.6-1.4l-8.2-1.2-3.7-7.6c-0.3-0.7-1-1.1-1.8-1.1s-1.4 0.4-1.8 1.1l-3.7 7.6-8.2 1.2c-0.7 0.1-1.4 0.6-1.6 1.4-0.2 0.7 0 1.5 0.5 2l6 5.9-1.4 8.3c-0.1 0.8 0.2 1.5 0.8 1.9 0.6 0.4 1.4 0.5 2.1 0.2l7.4-3.9 7.4 3.9c0.3 0.2 0.6 0.2 0.9 0.2 0.4 0 0.8-0.1 1.2-0.4 0.6-0.4 0.9-1.2 0.8-1.9l-1.4-8.3 6-5.9c0.3-0.5 0.5-1.3 0.3-2z" fill="#FFFFFF" p-id="1251"></path><path d="M350.3 561.4c-7.6-104 70.5-194.5 174.5-202.2 104-7.6 194.5 70.5 202.2 174.5 7.6 104-70.5 194.5-174.5 202.2-104.1 7.6-194.6-70.5-202.2-174.5z" fill="#F97B6E" p-id="1252"></path><path d="M263.7 652.2c-2.6 0-4.8-2.1-4.8-4.8 0-1.3 0.5-2.5 1.4-3.4 0.9-0.9 2.1-1.5 3.4-1.5 19.6-0.3 42.2-1.9 67-4.7 2.6-0.3 5 1.6 5.4 4.3 0.1 1.3-0.2 2.5-1 3.6-0.8 1-2 1.6-3.2 1.8-25.3 2.8-48.1 4.4-68.2 4.7 0.1 0 0.1 0 0 0z m-38.6-1.4h-0.5c-2.6-0.3-4.6-2.7-4.3-5.3 0.3-2.6 2.7-4.6 5.3-4.3 2.6 0.3 4.6 2.7 4.3 5.3-0.2 2.5-2.3 4.3-4.8 4.3z m144.4-8.4c-2.4 0-4.4-1.8-4.8-4.1-0.4-2.6 1.4-5.1 4.1-5.5 2.6-0.4 5.1 1.5 5.5 4.1 0.2 1.3-0.1 2.6-0.9 3.6s-1.9 1.7-3.2 1.9h-0.7z m-181.4-1.7c-0.9 0-1.9-0.3-2.6-0.8-5.3-3.4-8.8-7.9-10-12.8-0.4-1.5-0.6-3.1-0.6-4.7 0.1-7.5 4.1-15.2 12.6-24 7.5-7.7 18.5-16.1 32.7-24.9 0.8-0.5 1.6-0.7 2.5-0.7 1.7 0 3.2 0.9 4.1 2.3 0.7 1.1 0.9 2.4 0.6 3.6-0.3 1.3-1.1 2.3-2.2 3-13.5 8.4-23.9 16.2-30.9 23.4-6.4 6.5-10 12.8-9.9 17.2 0 0.8 0.1 1.5 0.3 2.2 0.7 2.6 2.6 5 6 7.2 1.1 0.7 1.8 1.8 2.1 3.1 0.3 1.3 0 2.5-0.7 3.6-0.8 1.5-2.3 2.3-4 2.3z m219.6-4.6c-2.3 0-4.3-1.7-4.8-4-0.5-2.6 1.3-5.1 3.9-5.6 21.4-3.8 43.7-8.3 66.1-13.4 0.3-0.1 0.7-0.1 1.1-0.1 2.2 0 4.2 1.6 4.7 3.8 0.3 1.3 0.1 2.6-0.6 3.7s-1.8 1.8-3 2.1c-22.6 5.1-45 9.6-66.5 13.4-0.4 0.1-0.7 0.1-0.9 0.1z m103.9-22.2c-2.2 0-4.2-1.5-4.7-3.7-0.3-1.3-0.1-2.5 0.6-3.6s1.7-1.9 3-2.2c0.4-0.1 0.8-0.1 1.2-0.1 2.2 0 4.2 1.5 4.7 3.7 0.6 2.6-1 5.2-3.5 5.8-0.5 0-0.9 0.1-1.3 0.1z m37.5-9.7c-2.2 0-4.1-1.5-4.7-3.6-0.7-2.6 0.8-5.2 3.4-5.9 22-5.9 43.8-12.3 64.8-18.8 0.5-0.1 1-0.2 1.4-0.2 2.1 0 4 1.4 4.6 3.4 0.4 1.2 0.3 2.5-0.3 3.7-0.6 1.2-1.6 2-2.8 2.4-21.2 6.6-43.1 13-65.2 18.9-0.4 0-0.8 0.1-1.2 0.1z m101.8-30.8c-2.1 0-3.9-1.3-4.6-3.3-0.9-2.5 0.5-5.3 3-6.1 0.5-0.2 1-0.3 1.5-0.3 2.1 0 3.9 1.3 4.6 3.3 0.9 2.5-0.5 5.3-3 6.1-0.5 0.2-1 0.3-1.5 0.3z m-394.3-9.6c-1.8 0-3.5-1-4.3-2.7-0.6-1.2-0.7-2.5-0.3-3.7 0.4-1.2 1.3-2.2 2.4-2.8 0.7-0.3 1.4-0.5 2.2-0.5 1.9 0 3.5 1 4.3 2.7 1.2 2.4 0.2 5.3-2.2 6.5-0.7 0.3-1.4 0.5-2.1 0.5z m430.7-3.3c-2 0-3.8-1.3-4.5-3.1-0.9-2.5 0.4-5.3 2.8-6.2 22.5-8.3 43.5-16.8 62.5-25.3 0.6-0.3 1.3-0.4 2-0.4 1.9 0 3.6 1.1 4.4 2.9 1.1 2.4 0 5.3-2.4 6.4-19.1 8.5-40.4 17.1-63 25.5-0.6 0.1-1.2 0.2-1.8 0.2z m-395.7-13c-1.9 0-3.7-1.1-4.4-2.9-0.5-1.2-0.5-2.5-0.1-3.7 0.5-1.2 1.4-2.1 2.6-2.7 19.3-8.4 40.6-16.8 63.2-25.1 0.5-0.2 1.1-0.3 1.7-0.3 2 0 3.9 1.3 4.5 3.2 0.9 2.5-0.4 5.3-2.9 6.2-22.4 8.2-43.5 16.5-62.6 24.9-0.7 0.2-1.3 0.4-2 0.4z m493.4-29c-1.8 0-3.5-1-4.3-2.6-0.6-1.2-0.7-2.5-0.3-3.7 0.4-1.2 1.2-2.2 2.4-2.8 0.7-0.3 1.5-0.5 2.2-0.5 1.8 0 3.5 1 4.3 2.6 0.6 1.1 0.7 2.5 0.3 3.7-0.4 1.2-1.3 2.2-2.4 2.8-0.7 0.3-1.5 0.5-2.2 0.5z m-394-8.7c-2.1 0-3.9-1.3-4.6-3.3-0.4-1.2-0.3-2.5 0.3-3.7 0.6-1.2 1.6-2 2.8-2.4 0.5-0.2 1-0.3 1.5-0.3 2.1 0 3.9 1.3 4.6 3.3 0.4 1.2 0.3 2.5-0.3 3.7-0.6 1.1-1.6 2-2.8 2.4-0.4 0.2-1 0.3-1.5 0.3z m427.5-10.5c-1.6 0-3.2-0.8-4.1-2.2-0.7-1.1-0.9-2.4-0.7-3.6 0.3-1.3 1-2.4 2.1-3 11.8-7.6 20.8-14.8 26.8-21.4 5.5-5.9 8.5-11.6 8.5-15.8 0-0.8-0.1-1.5-0.3-2.2-0.4-1.4-1-2.6-2.1-3.8-1.7-2-1.5-5.1 0.6-6.8 0.9-0.7 2-1.1 3.1-1.1 1.4 0 2.8 0.6 3.7 1.7 2 2.3 3.3 4.9 4 7.6 0.4 1.5 0.6 3.1 0.6 4.7-0.1 7.1-3.6 14.2-11 22.3-6.7 7.2-16 14.7-28.6 22.9-0.7 0.4-1.6 0.7-2.6 0.7zM427.9 498c-2.1 0-4-1.4-4.6-3.4-0.4-1.2-0.3-2.5 0.4-3.7 0.6-1.1 1.6-2 2.9-2.4 21.2-6.5 43.2-12.8 65.3-18.6 0.4-0.1 0.8-0.2 1.3-0.2 2.2 0 4.1 1.5 4.7 3.6 0.7 2.6-0.8 5.2-3.4 5.9-21.9 5.8-43.8 12.1-64.9 18.5-0.8 0.2-1.3 0.3-1.7 0.3z m102.5-28.1c-2.2 0-4.2-1.5-4.7-3.7-0.3-1.3-0.1-2.5 0.6-3.6s1.7-1.9 3-2.2c0.4-0.1 0.8-0.1 1.2-0.1 2.2 0 4.2 1.5 4.7 3.7 0.6 2.6-1 5.2-3.5 5.8-0.5 0-0.9 0.1-1.3 0.1z m37.7-8.7c-2.3 0-4.2-1.6-4.7-3.8-0.6-2.6 1.1-5.2 3.7-5.8 22.7-5 45.1-9.4 66.6-13.2 0.3 0 0.6-0.1 0.8-0.1 2.3 0 4.3 1.7 4.8 4 0.2 1.3-0.1 2.6-0.8 3.6-0.8 1.1-1.9 1.8-3.1 2-21.3 3.7-43.6 8.1-66.2 13.1-0.4 0.1-0.8 0.2-1.1 0.2z m104.5-19.3c-2.4 0-4.4-1.8-4.8-4.1-0.4-2.6 1.5-5.1 4.1-5.5h0.7c2.4 0 4.4 1.8 4.8 4.1 0.2 1.3-0.1 2.6-0.9 3.6s-1.9 1.7-3.2 1.9h-0.7z m38.4-4.8c-2.5 0-4.5-1.9-4.8-4.3-0.1-1.3 0.2-2.5 1-3.5s2-1.6 3.3-1.8c25.4-2.7 48.3-4.1 68-4.1 2.7 0 4.8 2.2 4.8 4.8 0 2.7-2.2 4.8-4.8 4.8-19.4 0-41.9 1.4-67 4.1h-0.5z m106.1-1.8h-0.7c-2.6-0.4-4.5-2.8-4.1-5.5 0.3-2.4 2.4-4.2 4.8-4.2h0.7c1.3 0.2 2.4 0.9 3.2 1.9 0.8 1 1.1 2.3 0.9 3.6-0.4 2.4-2.4 4.2-4.8 4.2z" fill="#8497B0" p-id="1253"></path><path d="M746.4 503.6c-1.9-26.1 17.7-48.8 43.8-50.8 26.1-1.9 48.8 17.7 50.8 43.8 1.9 26.1-17.7 48.8-43.8 50.8-26.2 1.9-48.9-17.7-50.8-43.8z" fill="#FACC7E" p-id="1254"></path><path d="M832.3 472.7l1.3 1.8c1.7 2.6 3.1 5.3 4.2 8.2l0.1 0.4-0.2 0.1-0.5 0.4-0.5 0.4-0.5 0.4-0.5 0.4-0.5 0.4-0.5 0.4-0.7 0.4-0.6 0.4-0.6 0.4-0.6 0.4-0.6 0.4-0.6 0.3-0.6 0.3-0.6 0.3-0.6 0.3-0.6 0.3-0.6 0.3-0.6 0.3-0.6 0.3-0.6 0.3-0.6 0.3-0.6 0.3-0.6 0.3-0.6 0.3-0.6 0.3-0.2 0.2-0.6 0.3-0.6 0.3-0.6 0.2-0.6 0.2-0.6 0.2-0.6 0.2-0.6 0.2-0.6 0.2-0.6 0.2-0.6 0.2-0.6 0.2-0.6 0.2-0.6 0.2-0.6 0.2-0.6 0.2-0.6 0.2-0.6 0.2-0.6 0.2-0.6 0.2-0.6 0.1-0.6 0.1-0.6 0.1-0.6 0.1-0.6 0.1-0.6 0.1-0.6 0.1-0.7 0.1-0.6 0.1-0.7 0.1-0.7 0.1-0.7 0.1-0.7 0.1-0.7 0.1-0.7 0.1-0.7 0.1H790l-0.7-0.1-0.7-0.1-0.7-0.1-0.7-0.1-0.7-0.1-0.7-0.1-0.7-0.1-0.7-0.1-0.7-0.1-1.3-0.2-1.8-0.6-1.4-1.1-1-1.5-0.5-1.7v-1.9l0.6-1.8 1.1-1.4 1.5-1 1.7-0.5h1.9l1.1 0.2 0.6 0.1 0.6 0.1 0.6 0.1 0.6 0.1 0.6 0.1 0.6 0.1 0.6 0.1 0.6 0.1H801l0.5-0.1 0.5-0.1 0.5-0.1 0.5-0.1 0.5-0.1 0.5-0.1 0.5-0.1 0.5-0.1 0.5-0.1 0.5-0.1 0.5-0.1 0.5-0.1 0.5-0.1 0.5-0.1 0.5-0.1 0.5-0.1 0.5-0.1 0.5-0.1 0.5-0.1 0.5-0.2 0.5-0.2 0.5-0.2 0.5-0.2 0.5-0.2 0.5-0.2 0.5-0.2 0.5-0.2 0.5-0.2 0.5-0.2 0.5-0.2 0.5-0.2 0.5-0.2 0.5-0.2 0.5-0.2 0.5-0.2 0.5-0.2 0.5-0.2 0.5-0.2 0.5-0.2 0.5-0.2 0.5-0.3 0.5-0.3 0.5-0.3 0.5-0.3 0.5-0.3 0.5-0.3 0.5-0.3 0.5-0.3 0.5-0.3 0.5-0.3 0.5-0.3 0.5-0.3 0.5-0.3 0.5-0.3 0.5-0.3 0.4-0.3 0.4-0.3 0.4-0.3 0.4-0.3 0.4-0.3 0.4-0.3 0.4-0.4 1-0.5zM746.3 497.9l0.5 0.1 1.7 0.9 0.9 0.7 0.5 0.3 0.5 0.3 0.5 0.3 0.5 0.3 0.5 0.3 0.5 0.3 0.5 0.3 0.5 0.3 0.5 0.3 0.5 0.3 0.5 0.3 0.5 0.3 0.5 0.3 0.5 0.3 0.5 0.3 0.5 0.3 0.5 0.2 0.5 0.2 0.5 0.2 0.5 0.2 0.5 0.2 0.5 0.2 0.5 0.2 0.5 0.2 0.5 0.2 0.5 0.2 0.5 0.2 0.5 0.2 0.5 0.2 0.5 0.2 0.5 0.2 0.5 0.2 0.5 0.2 0.5 0.2 0.5 0.2 0.5 0.2 0.5 0.1 0.5 0.1 0.5 0.1 0.5 0.1 0.5 0.1 0.5 0.1 0.5 0.1 0.5 0.1 0.5 0.1 0.5 0.1 0.5 0.1 0.5 0.1 0.5 0.1 0.5 0.1 0.5 0.1 0.5 0.1 0.5 0.1 0.5 0.1 0.5 0.1h9.5l0.5-0.1 0.5-0.1 0.5-0.1 0.5-0.1 0.5-0.1 0.5-0.1 0.5-0.1 0.5-0.1 0.5-0.1 0.5-0.1 0.5-0.1 0.5-0.1 0.5-0.1 0.5-0.1 0.5-0.1 0.5-0.1 0.5-0.1 0.5-0.1 0.5-0.1 0.5-0.2 0.5-0.2 0.5-0.2 0.5-0.2 0.5-0.2 0.9-0.2 0.9-0.1 0.9 0.1 0.9 0.2 0.8 0.3 0.8 0.5 0.7 0.6 0.6 0.7 0.5 0.8 0.4 0.9 0.2 0.9 0.1 0.9-0.1 0.9-0.2 0.9-0.3 0.8-0.5 0.8-0.6 0.7-0.7 0.6-0.8 0.5-0.9 0.4-0.7 0.2-0.6 0.2-0.6 0.2-0.6 0.2-0.6 0.2-0.6 0.2-0.6 0.2-0.6 0.2-0.6 0.2-0.7 0.1-0.7 0.1-0.7 0.1-0.7 0.1-0.7 0.1-0.7 0.1-0.7 0.1-0.7 0.1-0.7 0.1-0.7 0.1-0.7 0.1-0.7 0.1-0.7 0.1-0.7 0.1-0.7 0.1-0.7 0.1H774.1l-0.7-0.1-0.7-0.1-0.7-0.1-0.7-0.1-0.7-0.1-0.7-0.1-0.7-0.1-0.6-0.1-0.6-0.1-0.6-0.1-0.6-0.1-0.6-0.1-0.6-0.1-0.6-0.1-0.6-0.1-0.6-0.1-0.6-0.2-0.6-0.2-0.6-0.2-0.6-0.2-0.6-0.2-0.6-0.2-0.6-0.2-0.6-0.2-0.6-0.2-0.6-0.2-0.6-0.2-0.6-0.2-0.6-0.2-0.6-0.2-0.6-0.2-0.6-0.2-0.6-0.2-0.6-0.3-0.6-0.3-0.6-0.3-0.6-0.3-0.6-0.3-0.6-0.3-0.6-0.3-0.6-0.3-0.6-0.3-0.6-0.3-0.6-0.3-0.6-0.3-0.6-0.3-0.6-0.3-0.3-0.2-0.9-4c-0.3-1.6-0.5-3.2-0.6-4.8-0.1-1.6-0.2-3.3-0.1-4.9l3-1zM836.1 521.2l-1.3 2.4c-4.5 7.9-11.3 14.4-19.5 18.7l-2.3 1h-0.1l-0.6 0.1-0.7 0.1-0.7 0.1-0.6 0.1-0.7 0.1-0.7 0.1-0.7 0.1-0.7 0.1-0.7 0.1H795.6l-0.7-0.1-0.7-0.1-0.7-0.1-0.7-0.1-0.7-0.1-0.7-0.1-0.7-0.1-0.7-0.1-0.7-0.1-0.7-0.1-0.7-0.1-0.7-0.1-0.7-0.1-0.7-0.1-0.7-0.1-0.7-0.2-0.7-0.2-0.7-0.2 1-0.1-0.6-0.2-0.6-0.2-1.3-0.4-1.7-0.8-1.3-1.3-0.8-1.6-0.3-1.8 0.3-1.8 0.8-1.7 1.3-1.3 1.6-0.8 1.8-0.3 1.8 0.3 1.1 0.3 0.5 0.2 0.5 0.1 0.5 0.1 0.5 0.1 0.5 0.1 0.5 0.1 0.5 0.1 0.5 0.1 0.5 0.1 0.5 0.1 0.5 0.1 0.5 0.1 0.5 0.1 0.5 0.1 0.5 0.1 0.5 0.1 0.5 0.1 0.5 0.1 0.5 0.1h10l0.5-0.1 0.5-0.1 0.5-0.1 0.5-0.1 0.5-0.1 0.5-0.1 0.5-0.1 0.5-0.1 0.5-0.1 0.5-0.1 0.5-0.1 0.5-0.1 0.5-0.1 0.5-0.1 0.5-0.1 0.5-0.1 0.5-0.1 0.5-0.1 0.5-0.1 0.5-0.2 0.5-0.2 0.5-0.2 0.5-0.2 0.5-0.2 0.5-0.2 0.5-0.2 0.5-0.2 0.5-0.2 0.5-0.2 0.5-0.2 0.5-0.2 0.5-0.2 0.5-0.2 0.5-0.2 0.5-0.2 0.5-0.2 0.5-0.2 0.5-0.2 0.5-0.2 0.5-0.3 0.5-0.3 0.5-0.3 0.5-0.3 0.5-0.3 0.5-0.3 0.5-0.3 0.5-0.3 0.5-0.3 0.5-0.3 0.5-0.3 0.5-0.3 0.5-0.3 0.5-0.3 0.5-0.3 0.5-0.3 0.5-0.3 2.5-0.2zM802.5 453.5l1.9 0.3c4.5 1.1 8.9 2.8 12.8 5l0.2 0.1-0.4 0.3-0.6 0.3-0.6 0.3-0.6 0.3-0.6 0.3-0.6 0.3-0.6 0.3-0.6 0.3-0.6 0.3-0.6 0.3-0.6 0.3-0.6 0.3-0.6 0.3-0.6 0.3-0.6 0.3-0.6 0.3-0.6 0.3-0.6 0.2-0.6 0.2-0.6 0.2-0.6 0.2-0.6 0.2-0.6 0.2-0.6 0.2-0.6 0.2-0.6 0.2-0.6 0.2-0.6 0.2-0.6 0.2-0.6 0.2-0.6 0.2-0.6 0.2-0.6 0.2-0.6 0.1-0.6 0.1-0.6 0.1-0.6 0.1-0.6 0.1-0.6 0.1-0.6 0.1-0.6 0.1-0.6 0.1-0.6 0.1-0.7 0.1-0.7 0.1-0.7 0.1-0.7 0.1-0.7 0.1-0.7 0.1H776.4l-0.7-0.1-0.7-0.1-0.7-0.1-0.7-0.1-0.7-0.1-0.7-0.1-0.7-0.1-0.7-0.1-0.7-0.1-0.7-0.1-0.6-0.1-0.7-0.1-0.6-0.1-0.6-0.1-0.6-0.1-0.6-0.1-0.6-0.2-0.6-0.2-0.6-0.2-0.6-0.2-0.6-0.2-0.6-0.2-0.6-0.2-0.6-0.2-0.2-0.1 0.1-0.1c3.3-3.1 7-5.8 11.2-7.9l1.9-0.8h0.2l0.5 0.1 0.5 0.1 0.5 0.1 0.5 0.1h9.5l0.5-0.1 0.5-0.1 0.5-0.1 0.5-0.1 0.5-0.1 0.5-0.1 0.5-0.1 0.5-0.1 0.5-0.1 0.5-0.1 0.5-0.1 0.5-0.1 0.5-0.1 0.5-0.1 0.5-0.1 0.5-0.1 0.5-0.1 0.5-0.1 0.5-0.1 0.5-0.1 0.5-0.2 0.5-0.2 0.5-0.2 0.5-0.2 0.5-0.2 0.5-0.2 0.5-0.2 0.5-0.2 0.5-0.2 2.4 0.2z" fill="#F6A824" p-id="1255"></path><path d="M304.1 692.3c-2.7 0-4.8-2.2-4.8-4.8 0-2.7 2.2-4.8 4.8-4.8 2.7 0 4.8 2.2 4.8 4.8 0 2.6-2.2 4.8-4.8 4.8z m38.6-1c-2.6 0-4.7-2-4.8-4.6-0.1-1.3 0.4-2.5 1.2-3.5 0.9-1 2-1.5 3.3-1.6 21.3-1.1 43.8-3.2 67-6.1 2.6-0.3 5.1 1.6 5.4 4.2 0.3 2.6-1.5 5.1-4.2 5.4-23.4 3-46.2 5.1-67.7 6.2h-0.2z m-77.3-0.4h-0.4c-26.7-2-49.5-6.2-67.6-12.4-2.5-0.9-3.9-3.6-3-6.1 0.7-2 2.5-3.3 4.6-3.3 0.5 0 1.1 0.1 1.6 0.3 17.3 5.9 39.3 9.9 65.2 11.9 2.7 0.2 4.6 2.5 4.5 5.2-0.2 2.4-2.4 4.4-4.9 4.4z m182.9-11.3c-2.4 0-4.4-1.7-4.8-4-0.4-2.6 1.3-5.1 4-5.5 0.3 0 0.5-0.1 0.8-0.1 2.4 0 4.4 1.7 4.8 4.1 0.4 2.6-1.4 5.1-4 5.5-0.3-0.1-0.5 0-0.8 0z m38.1-6.9c-2.3 0-4.3-1.6-4.7-3.9-0.2-1.3 0-2.6 0.7-3.6 0.7-1.1 1.8-1.8 3.1-2 21.7-4.3 43.8-9.2 65.8-14.7 0.4-0.1 0.8-0.1 1.2-0.1 2.2 0 4.2 1.5 4.7 3.7 0.3 1.3 0.1 2.5-0.5 3.7-0.7 1.1-1.7 1.9-3 2.2-22.1 5.6-44.4 10.6-66.3 14.9-0.4-0.2-0.7-0.2-1-0.2z m-320.9-12.5c-1.2 0-2.4-0.5-3.3-1.3-1.9-1.8-2-4.9-0.2-6.8 0.9-1 2.2-1.5 3.5-1.5 1.2 0 2.4 0.5 3.3 1.3 1.9 1.8 2 4.9 0.2 6.8-0.9 0.9-2.2 1.5-3.5 1.5zM589.8 648c-2.2 0-4.1-1.5-4.7-3.5-0.3-1.2-0.2-2.5 0.4-3.7 0.6-1.1 1.7-1.9 2.9-2.3 0.4-0.1 0.9-0.2 1.3-0.2 2.1 0 4.1 1.4 4.6 3.5 0.7 2.6-0.8 5.2-3.3 6-0.4 0.1-0.8 0.2-1.2 0.2z m-436.3-7.1c-2.2 0-4.1-1.5-4.7-3.6-0.9-3.4-1.3-6.9-1.3-10.4 0-8.5 2.5-17.4 7.4-26.6 4.6-8.7 11.5-17.8 20.4-27.1 0.9-1 2.2-1.5 3.5-1.5 1.3 0 2.5 0.5 3.4 1.4 1.9 1.8 2 4.9 0.1 6.8-16.5 17.1-25.2 33.3-25.1 47 0 2.7 0.3 5.4 1 8 0.7 2.6-0.9 5.2-3.5 5.9-0.4 0-0.8 0.1-1.2 0.1z m473.3-4c-2.1 0-4-1.4-4.6-3.4-0.4-1.2-0.3-2.5 0.3-3.7 0.6-1.1 1.6-2 2.8-2.4 21.8-6.9 43.3-14.3 63.7-22 0.6-0.2 1.1-0.3 1.7-0.3 2 0 3.8 1.3 4.5 3.1 0.9 2.5-0.3 5.3-2.8 6.2-20.7 7.8-42.3 15.3-64.2 22.2-0.4 0.2-0.9 0.3-1.4 0.3z m99.9-36.4c-1.9 0-3.7-1.2-4.5-3-0.5-1.2-0.5-2.5 0-3.7 0.5-1.2 1.4-2.1 2.6-2.6 0.6-0.2 1.2-0.4 1.9-0.4 2 0 3.7 1.2 4.5 3 1 2.5-0.1 5.3-2.6 6.3-0.6 0.2-1.3 0.4-1.9 0.4z m35.3-15.8c-1.9 0-3.6-1.1-4.4-2.8-0.5-1.2-0.6-2.5-0.2-3.7 0.4-1.2 1.3-2.2 2.5-2.7 21.6-10.2 41.6-20.8 59.4-31.4 0.8-0.4 1.6-0.7 2.5-0.7 1.7 0 3.3 0.9 4.2 2.4 1.4 2.3 0.6 5.3-1.7 6.6-18 10.8-38.3 21.5-60.2 31.8-0.7 0.4-1.4 0.5-2.1 0.5zM208 556c-1.5 0-2.9-0.7-3.9-1.9-0.8-1-1.1-2.3-0.9-3.6 0.2-1.3 0.8-2.4 1.9-3.2 0.8-0.6 1.8-1 2.9-1 1.5 0 2.9 0.7 3.9 1.9 0.8 1 1.1 2.3 0.9 3.6-0.2 1.3-0.8 2.4-1.9 3.2-0.9 0.6-1.9 1-2.9 1z m31.9-21.7c-1.7 0-3.2-0.9-4.1-2.3-0.7-1.1-0.9-2.4-0.6-3.7 0.3-1.3 1.1-2.3 2.2-3 17.8-11 37.9-21.9 59.9-32.5 0.7-0.3 1.4-0.5 2.1-0.5 1.9 0 3.5 1 4.4 2.7 1.2 2.4 0.1 5.3-2.3 6.5-21.6 10.5-41.5 21.2-59 32.1-0.8 0.4-1.7 0.7-2.6 0.7z m614.3-2.3c-1.5 0-3-0.8-3.9-2-0.8-1-1-2.3-0.8-3.6 0.2-1.3 0.9-2.4 1.9-3.2 0.8-0.6 1.8-0.9 2.8-0.9 1.5 0 3 0.8 3.9 2 1.6 2.2 1.1 5.2-1.1 6.7-0.8 0.7-1.8 1-2.8 1z m29.9-24.5c-1.3 0-2.6-0.5-3.5-1.5-1.8-1.9-1.8-5 0.2-6.8 10.1-9.6 17.8-19 22.9-27.9 5.1-8.7 7.6-17 7.6-24.5v-1.3c-0.1-2.7 2-4.9 4.6-5 2.7-0.1 4.9 2 5 4.6v1.6c0 9.3-3 19.1-8.9 29.4-5.6 9.6-13.9 19.7-24.6 30-0.9 0.9-2.1 1.4-3.3 1.4z m-549.6-21.6c-1.9 0-3.7-1.1-4.4-2.9-0.5-1.2-0.5-2.5 0-3.7 0.5-1.2 1.4-2.1 2.6-2.7 0.6-0.3 1.3-0.4 1.9-0.4 1.9 0 3.7 1.1 4.4 2.9 1.1 2.4-0.1 5.3-2.5 6.4-0.7 0.3-1.3 0.4-2 0.4z m35.9-14.6c-2 0-3.8-1.2-4.5-3.1-1-2.5 0.3-5.3 2.8-6.3 20.5-7.9 42.1-15.5 64.1-22.6 0.5-0.1 1-0.2 1.5-0.2 2.1 0 4 1.4 4.6 3.4 0.4 1.2 0.3 2.5-0.3 3.7-0.6 1.1-1.6 2-2.8 2.4-21.8 7-43.2 14.6-63.6 22.4-0.7 0.2-1.3 0.3-1.8 0.3z m100.8-33.8c-2.1 0-4-1.4-4.6-3.5-0.4-1.2-0.2-2.5 0.4-3.7 0.6-1.1 1.6-1.9 2.9-2.3 0.4-0.1 0.9-0.2 1.3-0.2 2.1 0 4.1 1.4 4.6 3.5 0.4 1.2 0.2 2.5-0.4 3.7-0.6 1.1-1.6 1.9-2.9 2.3-0.4 0.1-0.9 0.2-1.3 0.2z m37.3-10.2c-2.2 0-4.1-1.5-4.7-3.6-0.7-2.6 0.9-5.2 3.5-5.9 22.1-5.7 44.3-10.8 66.2-15.3 0.3-0.1 0.6-0.1 1-0.1 2.3 0 4.3 1.6 4.7 3.9 0.3 1.3 0 2.6-0.7 3.6-0.7 1.1-1.8 1.8-3.1 2.1-21.7 4.4-43.8 9.5-65.7 15.1-0.4 0.2-0.8 0.2-1.2 0.2z m388.4-9.1c-1 0-2-0.3-2.8-0.9-1-0.8-1.7-1.9-1.9-3.1-0.2-1.3 0.1-2.6 0.9-3.6 0.9-1.3 2.4-2 3.9-2 1 0 2 0.3 2.8 0.9 2.1 1.6 2.6 4.6 1.1 6.8-0.9 1.1-2.4 1.9-4 1.9zM612.4 405c-2.4 0-4.4-1.7-4.8-4-0.2-1.3 0.1-2.6 0.8-3.6 0.7-1 1.9-1.8 3.1-2 0.3 0 0.5-0.1 0.8-0.1 2.4 0 4.4 1.7 4.8 4 0.5 2.6-1.3 5.1-3.9 5.6-0.3 0.1-0.5 0.1-0.8 0.1z m249.5-2.7c-0.5 0-0.9-0.1-1.3-0.2-17.9-5.2-40-8.6-65.7-10.2-2.7-0.2-4.7-2.5-4.5-5.1 0.2-2.7 2.5-4.7 5.1-4.5 26.4 1.6 49.2 5.1 67.8 10.5 1.2 0.4 2.3 1.2 2.9 2.3 0.6 1.1 0.8 2.4 0.4 3.7-0.6 2-2.5 3.5-4.7 3.5z m-211.3-3.1c-2.4 0-4.5-1.8-4.8-4.2-0.4-2.6 1.5-5.1 4.1-5.4 23.3-3.1 46.1-5.4 67.7-6.8 2.6-0.2 5 1.9 5.1 4.5 0.1 1.3-0.3 2.5-1.2 3.5-0.9 1-2 1.5-3.3 1.6-21.3 1.3-43.8 3.6-67 6.7-0.2 0.1-0.4 0.1-0.6 0.1z m106-8.2c-2.7 0-4.9-2.2-4.9-4.8 0-1.3 0.5-2.5 1.4-3.4 0.9-0.9 2.1-1.4 3.4-1.5 2.6 0 4.8 2.2 4.8 4.8 0.1 2.7-2 4.9-4.7 4.9z" fill="#8497B0" p-id="1256"></path><path d="M524.8 359.2c97.5-7.2 183.2 61.1 199.8 155.3l0.3 2.4-375 27.5-0.1-2.4c2.7-95.6 77.5-175.6 175-182.8z" fill="#F97B6E" p-id="1257"></path><path d="M242.8 690.4c-1.7-23.5 15.9-44 39.4-45.7 23.5-1.7 44 15.9 45.7 39.4 1.7 23.5-15.9 44-39.4 45.7-23.5 1.8-44-15.9-45.7-39.4z" fill="#8CD092" p-id="1258"></path><path d="M269.7 647.5l1.2 0.7c2.9 1.6 5.7 3.7 7.2 4.8 2.4 1.8 3.2 2.3 2.5 3.9-0.7 1.7-3.7 3.3-6.5 6.1s-7.3 8.6-10.2 10.5c-3 1.9-6.8-0.3-7.6 0.9-0.8 1.2 2.6 4.8 2.7 6.5 0.2 1.8 0 3.7-1.8 4-1.7 0.3-6.5-0.5-8.6-2.2-2-1.7-2.4-4.5-3.6-8.1l-0.3-0.8 0.1-0.3c3.6-10.5 11.1-19.3 21-24.3l3.9-1.7zM263 685.3c1.8-0.3 2.1 3.7 4.4 4.5s7.3-0.3 9.7 0.6c2.5 0.9 3.6 3.9 5.2 4.8 1.6 1 4.1-1 4.4 1 0.2 2-2 8.1-2.9 10.8-0.9 2.7-1.4 3.7-2.4 5.6-1 1.8-2.7 3.3-3.7 5.5s-1.1 6.8-2.2 7.6c-1.2 0.8-3.7-1-4.7-2.8-1-1.8-1.5-7.9-1.5-7.9-0.7-3.4-0.7-10.3-2.4-12.7-1.7-2.4-6.3 0.3-7.9-1.5-1.7-1.8-2.9-6.6-2.2-9.2 0.7-2.5 4.4-6 6.2-6.3zM293.2 663.5c2.3-0.1 5 0.3 7 0.6 3.3 0.5 5.6 3.3 9.4 3.6 2.9 0.3 6.3-0.2 9.9-0.9l3-0.6 0.9 1.6c2.5 4.9 4.1 10.4 4.6 16.3 0.6 8.8-1.4 17.2-5.5 24.3l-0.8 1.3-0.7-0.1c-1.3-0.3-1.6-0.5-2.4-1.6-1.1-1.5-1.5-4.4-2.6-7.3-1.1-2.9-2.9-7.3-3.7-10-0.9-2.7 0.2-4.6-1.4-6.2-1.6-1.7-5.6-3.2-8.3-3.7-2.7-0.5-5.5 1.9-8.1 0.8-2.6-1.1-6.7-4.8-7.5-7.7-0.8-2.9 0.6-7.9 2.8-9.5 0.8-0.6 2-0.8 3.4-0.9zM303.8 648.8l2.8 1.4c3.6 2 6.8 4.6 9.7 7.6l1.8 2.1-1.5 0.2c-2.4 0.3-5 0.4-7 0.3-4.1-0.2-8.3-2.8-12-3-3.7-0.3-9 2.1-10.3 1.3-1.3-0.8 0.7-5 2.4-6s4.8 1 7.6 0c1.8-0.6 4.2-2.4 6.3-3.8l0.2-0.1z" fill="#FACC7E" p-id="1259"></path></svg>